<?xml version="1.0" standalone="no"?>
<!DOCTYPE svg PUBLIC "-//W3C//DTD SVG 20010904//EN"
 "http://www.w3.org/TR/2001/REC-SVG-20010904/DTD/svg10.dtd">
<svg version="1.0" xmlns="http://www.w3.org/2000/svg"
 width="1890.000000pt" height="473.000000pt" viewBox="0 0 1890.000000 473.000000"
 preserveAspectRatio="xMidYMid meet">

<g transform="translate(0.000000,473.000000) scale(0.100000,-0.100000)"
fill="#000000" stroke="none">
<path d="M10 2670 c0 -1655 2 -2050 13 -2050 31 0 310 53 425 81 162 39 417
124 553 184 161 70 354 172 351 185 -1 6 2 9 8 5 12 -7 105 43 96 52 -3 3 -13
0 -22 -8 -14 -11 -16 -10 -13 6 2 11 0 26 -4 32 -6 9 -3 11 7 7 12 -5 16 1 16
21 0 15 4 24 10 20 9 -5 15 23 11 48 0 4 3 7 7 7 5 0 7 13 4 29 -3 23 0 29 13
28 10 -1 19 6 21 16 2 9 5 24 7 33 2 8 9 19 15 23 7 4 14 22 15 39 1 20 8 34
18 37 9 3 20 21 23 39 4 19 13 37 21 40 8 3 15 14 15 24 0 11 9 31 21 46 11
14 17 30 14 36 -3 5 -2 10 4 10 5 0 12 -8 14 -17 2 -10 2 -1 0 19 -4 32 -2 38
14 39 17 0 17 1 1 7 -17 7 -16 8 2 20 18 11 20 10 21 -10 1 -18 2 -19 6 -5 3
10 2 26 -2 35 -13 31 -13 72 0 72 13 0 35 41 35 65 0 8 5 15 11 15 5 0 8 4 5
9 -3 5 1 14 9 21 7 6 11 18 8 26 -3 8 1 14 10 14 10 0 18 14 22 40 4 25 12 40
21 40 8 0 14 9 14 20 0 11 3 20 8 20 4 0 7 -19 5 -42 -1 -24 1 -33 3 -20 3 12
10 22 15 22 14 0 11 26 -6 40 -19 16 -20 40 -1 40 7 0 17 18 23 43 5 24 14 41
21 39 7 -1 13 8 14 20 1 13 2 30 4 38 1 8 2 25 3 38 1 12 7 21 14 20 8 -2 11
8 9 33 -2 23 3 41 13 49 10 8 15 9 15 1 0 -6 5 -11 11 -11 5 0 8 4 4 10 -3 5
0 18 7 29 7 11 9 23 5 27 -9 9 -38 -16 -31 -27 3 -5 2 -8 -3 -7 -12 4 -54 -28
-46 -35 3 -4 1 -7 -6 -7 -8 0 -11 -6 -7 -16 6 -15 4 -15 -10 -3 -15 12 -13 16
13 39 16 14 164 144 329 290 344 306 489 428 664 562 146 112 408 294 486 338
30 18 54 38 54 47 0 9 6 13 14 10 14 -6 40 7 256 121 306 161 708 312 1050
395 223 54 273 64 450 91 464 72 474 74 545 106 207 94 573 227 865 314 l115
35 -3372 0 -3373 1 0 -2050z m5350 2030 c0 -6 -11 -10 -25 -10 -14 0 -25 -4
-25 -10 0 -5 -7 -10 -15 -10 -8 0 -12 -6 -9 -14 3 -8 0 -17 -7 -22 -8 -4 -10
-3 -5 4 12 20 -2 13 -27 -12 -14 -14 -23 -27 -20 -30 9 -9 -37 -27 -84 -32
-41 -5 -62 -8 -93 -13 -3 -1 -4 -26 -3 -57 1 -41 -2 -53 -10 -45 -17 17 -27
13 -27 -9 0 -15 -7 -20 -25 -20 -14 0 -25 -4 -25 -10 0 -5 -9 -10 -19 -10 -11
0 -23 -4 -26 -10 -6 -10 6 -14 39 -10 17 2 16 -2 -8 -31 -28 -33 -58 -47 -55
-26 3 24 -1 37 -11 37 -5 0 -10 -9 -10 -20 0 -15 -7 -20 -25 -20 -15 0 -25 -6
-25 -14 0 -16 -36 -11 -47 7 -9 14 28 39 41 28 7 -6 11 0 12 19 1 20 -3 27
-12 23 -8 -3 -14 -11 -14 -17 0 -7 -11 -19 -25 -26 -25 -13 -33 -30 -15 -30 6
0 10 -12 10 -26 0 -29 -26 -30 -44 -2 -8 13 -6 25 7 47 9 16 16 35 14 43 -2 7
-2 10 0 6 9 -16 21 -7 16 12 -3 10 4 32 16 49 30 42 26 57 -8 24 -36 -36 -69
-58 -84 -58 -19 0 -65 -49 -53 -57 7 -5 4 -8 -6 -8 -10 0 -18 -4 -18 -9 0 -5
-9 -11 -19 -14 -14 -3 -18 -11 -14 -26 5 -21 -11 -51 -28 -51 -5 0 -9 7 -9 15
0 8 -9 15 -20 15 -31 0 -24 28 8 32 37 4 29 22 -10 22 -29 0 -33 -3 -30 -26 2
-20 -2 -27 -23 -32 -14 -4 -23 -11 -20 -16 3 -6 0 -10 -7 -10 -9 -1 -7 -5 5
-14 23 -18 22 -36 -4 -36 -14 0 -19 5 -16 15 7 16 -8 31 -17 17 -9 -15 -49 -6
-52 11 -1 9 2 17 7 17 5 0 9 8 9 17 0 14 -5 13 -27 -9 -22 -22 -24 -30 -14
-42 10 -12 9 -14 -8 -9 -22 6 -56 -21 -46 -36 3 -5 2 -12 -3 -15 -9 -5 -10 1
-13 48 -2 27 -21 36 -83 36 -63 0 -32 -16 37 -19 13 -1 17 -10 17 -36 0 -28
-4 -35 -20 -35 -13 0 -20 7 -20 20 0 13 -7 20 -20 20 -11 0 -20 -6 -20 -14 0
-7 -9 -16 -20 -19 -12 -3 -20 -14 -20 -26 0 -19 -6 -21 -54 -21 -30 0 -57 4
-61 10 -3 5 -13 6 -22 3 -13 -5 -15 -2 -10 18 4 13 7 30 7 37 0 7 14 13 33 13
l32 2 -34 6 c-31 5 -33 8 -20 21 8 9 15 22 17 30 2 8 8 17 13 18 5 2 9 8 9 13
0 4 -7 5 -17 2 -12 -5 -14 -3 -8 6 6 11 -7 12 -61 7 -98 -10 -134 -17 -134
-27 0 -5 -7 -9 -16 -9 -9 0 -12 -5 -8 -12 4 -6 -1 -17 -12 -25 -15 -11 -16
-15 -5 -22 11 -7 9 -10 -8 -16 -11 -3 -21 -13 -21 -21 0 -9 -7 -14 -17 -12
-10 1 -37 -6 -60 -17 -31 -15 -43 -26 -43 -42 0 -16 -6 -23 -20 -23 -13 0 -20
-7 -20 -20 0 -22 -1 -23 -24 -14 -17 7 -22 34 -6 34 6 0 10 9 10 20 0 23 -4
24 -30 10 -13 -7 -21 -7 -25 0 -3 5 -32 10 -64 10 -50 0 -59 -3 -57 -17 1 -15
-8 -18 -59 -19 -33 -1 -66 4 -74 10 -11 8 -13 8 -7 -1 4 -7 3 -13 -3 -13 -5 0
-13 -9 -16 -20 -3 -11 -11 -20 -17 -20 -5 0 -12 9 -15 20 -3 11 -12 20 -19 20
-8 0 -14 9 -14 20 0 17 7 20 51 20 42 0 52 3 56 19 4 14 14 19 41 18 80 -1
122 3 122 14 0 6 -15 8 -43 4 l-43 -7 -2 36 c-2 20 1 36 5 35 26 -4 33 3 30
34 -2 29 -5 32 -32 29 -17 -2 -41 -10 -54 -19 -13 -8 -20 -10 -17 -4 5 7 -2
11 -18 11 -14 0 -26 -4 -26 -10 0 -5 -11 -10 -24 -10 -24 0 -43 34 -25 46 5 3
9 14 9 25 0 11 5 17 10 14 6 -3 11 3 12 14 0 12 1 26 2 33 1 6 -5 13 -12 16
-7 2 -10 -2 -6 -12 5 -13 -3 -16 -50 -16 -31 0 -57 1 -58 2 -2 1 -13 -4 -25
-10 -19 -10 -23 -9 -29 10 -4 15 -1 26 14 37 21 17 39 71 23 71 -6 0 -19 -9
-29 -21 -16 -16 -21 -17 -25 -6 -3 10 -14 13 -31 10 -19 -4 -26 -1 -26 10 0 9
5 19 10 22 6 3 10 10 10 16 0 5 -4 9 -10 9 -5 0 -10 -7 -10 -15 0 -8 -9 -15
-20 -15 -12 0 -20 -7 -20 -18 0 -19 -36 -46 -45 -33 -5 10 4 42 15 51 3 3 12
24 18 47 9 29 17 40 26 37 8 -3 17 0 21 6 5 8 -3 11 -26 9 -19 -2 -38 -5 -44
-8 -5 -3 -24 -4 -42 -2 -20 1 -33 -2 -33 -9 0 -6 6 -8 13 -4 6 4 9 3 5 -1 -7
-7 -45 -10 -88 -6 -5 1 0 20 10 44 26 56 26 80 1 72 -12 -3 -21 0 -24 9 -6 14
142 16 1318 16 876 0 1325 -3 1325 -10z m159 -6 c22 -5 31 -12 29 -23 -5 -25
-38 -26 -38 -1 0 20 -4 21 -70 18 -38 -3 -70 -1 -70 4 0 9 104 11 149 2z
m-184 -34 c3 -5 1 -10 -4 -10 -6 0 -11 5 -11 10 0 6 2 10 4 10 3 0 8 -4 11
-10z m62 -60 c-1 -12 -8 -20 -20 -20 -10 0 -21 -9 -24 -20 -3 -11 -14 -20 -25
-20 -15 0 -18 -5 -13 -20 5 -17 2 -20 -23 -20 -16 0 -44 -3 -61 -6 -28 -6 -31
-4 -31 20 0 19 5 26 20 26 11 0 20 7 20 15 0 10 10 15 33 15 49 0 75 10 80 31
7 26 46 26 44 -1z m-137 6 c0 -3 -4 -8 -10 -11 -5 -3 -10 -1 -10 4 0 6 5 11
10 11 6 0 10 -2 10 -4z m-2431 -79 c-10 -22 -39 -33 -39 -15 0 4 6 8 14 8 8 0
16 7 20 15 3 8 8 15 10 15 3 0 1 -10 -5 -23z m28 -19 c-3 -8 -6 -5 -6 6 -1 11
2 17 5 13 3 -3 4 -12 1 -19z m2286 7 c-3 -9 -8 -14 -10 -11 -3 3 -2 9 2 15 9
16 15 13 8 -4z m-2456 -31 c-3 -3 -12 -4 -19 -1 -8 3 -5 6 6 6 11 1 17 -2 13
-5z m313 -44 c0 -11 -4 -20 -9 -20 -6 0 -9 9 -8 20 1 11 5 20 9 20 4 0 8 -9 8
-20z m-266 -5 c3 -8 1 -15 -4 -15 -6 0 -10 7 -10 15 0 8 2 15 4 15 2 0 6 -7
10 -15z m187 -28 c-10 -9 -11 -8 -5 6 3 10 9 15 12 12 3 -3 0 -11 -7 -18z m44
-26 c3 -5 2 -12 -3 -15 -5 -3 -9 1 -9 9 0 17 3 19 12 6z m-105 -37 c0 -2 -15
-4 -32 -4 -23 0 -29 3 -19 9 12 8 51 4 51 -5z m250 -28 c0 -2 -7 -7 -16 -10
-8 -3 -12 -2 -9 4 6 10 25 14 25 6z m-50 -16 c0 -5 -5 -10 -11 -10 -5 0 -7 5
-4 10 3 6 8 10 11 10 2 0 4 -4 4 -10z m-110 -26 c0 -19 4 -25 15 -20 8 3 15 1
15 -4 0 -10 -90 -31 -102 -24 -4 3 -7 21 -5 40 2 32 4 34 40 34 33 0 37 -3 37
-26z m920 -5 c0 -5 4 -8 8 -5 4 2 8 -4 9 -14 2 -18 1 -18 -18 1 -21 21 -24 29
-9 29 6 0 10 -5 10 -11z m-563 -21 c-3 -8 -6 -5 -6 6 -1 11 2 17 5 13 3 -3 4
-12 1 -19z m1190 -15 c-3 -2 -13 -3 -23 -1 -16 3 -16 4 2 22 18 18 19 18 22 2
2 -10 1 -20 -1 -23z m303 27 c0 -5 -5 -10 -11 -10 -5 0 -7 5 -4 10 3 6 8 10
11 10 2 0 4 -4 4 -10z m-1520 -14 c0 -2 -7 -7 -16 -10 -8 -3 -12 -2 -9 4 6 10
25 14 25 6z m40 -26 c0 -5 -2 -10 -4 -10 -3 0 -8 5 -11 10 -3 6 -1 10 4 10 6
0 11 -4 11 -10z m-220 -20 c0 -11 -7 -20 -15 -20 -8 0 -15 9 -15 20 0 11 7 20
15 20 8 0 15 -9 15 -20z m735 -39 c-6 -5 -25 10 -25 20 0 5 6 4 14 -3 8 -7 12
-15 11 -17z m-692 -18 c-7 -2 -21 -2 -30 0 -10 3 -4 5 12 5 17 0 24 -2 18 -5z
m280 -500 c-7 -2 -13 -11 -13 -19 0 -15 -43 -30 -59 -19 -6 3 -11 15 -11 26 0
16 7 19 48 18 26 0 41 -3 35 -6z m-89 -58 c3 -8 1 -15 -4 -15 -6 0 -10 7 -10
15 0 8 2 15 4 15 2 0 6 -7 10 -15z m-1544 -1517 c0 -5 -5 -8 -11 -8 -5 0 -7 5
-4 10 3 6 1 10 -5 10 -6 0 -8 5 -4 11 6 11 23 -6 24 -23z m-25 -38 c3 -6 -1
-7 -9 -4 -18 7 -21 14 -7 14 6 0 13 -4 16 -10z m-115 -290 c0 -5 -8 -10 -17
-10 -15 0 -16 2 -3 10 19 12 20 12 20 0z m-45 -91 c-10 -15 -25 -10 -19 6 4 8
10 12 15 9 5 -3 7 -10 4 -15z m-60 -89 c3 -5 1 -10 -4 -10 -6 0 -11 5 -11 10
0 6 2 10 4 10 3 0 8 -4 11 -10z m-136 -459 c-15 -5 -22 6 -14 19 6 9 10 9 16
-1 5 -8 4 -15 -2 -18z m-73 -20 c0 -12 -5 -17 -15 -13 -9 3 -12 1 -7 -6 4 -6
-3 -16 -16 -22 -19 -9 -21 -9 -8 2 8 7 16 20 18 28 3 11 15 24 27 30 1 0 1 -8
1 -19z"/>
<path d="M3031 4594 c0 -11 3 -14 6 -6 3 7 2 16 -1 19 -3 4 -6 -2 -5 -13z"/>
<path d="M3221 4474 c0 -11 3 -14 6 -6 3 7 2 16 -1 19 -3 4 -6 -2 -5 -13z"/>
<path d="M4863 4464 c-15 -15 -17 -44 -4 -44 7 0 23 51 18 56 -1 1 -8 -4 -14
-12z"/>
<path d="M4245 4430 c-16 -7 -17 -9 -3 -9 9 -1 20 4 23 9 7 11 7 11 -20 0z"/>
<path d="M4585 4430 c-3 -5 -2 -10 4 -10 5 0 13 5 16 10 3 6 2 10 -4 10 -5 0
-13 -4 -16 -10z"/>
<path d="M3270 4400 c-12 -8 -10 -10 8 -10 13 0 20 4 17 10 -7 12 -6 12 -25 0z"/>
<path d="M3858 4383 c7 -3 16 -2 19 1 4 3 -2 6 -13 5 -11 0 -14 -3 -6 -6z"/>
<path d="M3928 4383 c7 -3 16 -2 19 1 4 3 -2 6 -13 5 -11 0 -14 -3 -6 -6z"/>
<path d="M4520 4355 c-10 -12 -10 -15 4 -15 9 0 16 7 16 15 0 8 -2 15 -4 15
-2 0 -9 -7 -16 -15z"/>
<path d="M3570 4350 c0 -5 -9 -10 -19 -10 -11 0 -23 -9 -26 -21 -6 -17 -9 -19
-16 -8 -6 10 -9 4 -9 -18 0 -26 -4 -33 -20 -33 -11 0 -20 -7 -20 -15 0 -8 -9
-19 -20 -25 -31 -16 -24 -30 15 -30 28 0 35 -4 35 -20 0 -11 3 -20 8 -20 8 0
32 49 32 67 0 7 7 13 15 13 8 0 15 7 15 15 0 8 6 15 14 15 7 0 16 14 20 31 10
50 7 69 -9 69 -8 0 -15 -4 -15 -10z m-36 -78 c3 -5 -1 -9 -9 -9 -8 0 -12 4 -9
9 3 4 7 8 9 8 2 0 6 -4 9 -8z"/>
<path d="M4001 4344 c0 -11 3 -14 6 -6 3 7 2 16 -1 19 -3 4 -6 -2 -5 -13z"/>
<path d="M4205 4350 c4 -6 11 -8 16 -5 14 9 11 15 -7 15 -8 0 -12 -5 -9 -10z"/>
<path d="M3332 4320 c0 -14 2 -19 5 -12 2 6 2 18 0 25 -3 6 -5 1 -5 -13z"/>
<path d="M4306 4323 c-6 -14 -5 -15 5 -6 7 7 10 15 7 18 -3 3 -9 -2 -12 -12z"/>
<path d="M3391 4284 c0 -11 3 -14 6 -6 3 7 2 16 -1 19 -3 4 -6 -2 -5 -13z"/>
<path d="M3619 4240 c-17 -11 11 -17 46 -10 l30 6 -32 5 c-18 3 -38 2 -44 -1z"/>
<path d="M4060 4205 c-10 -12 -10 -15 4 -15 9 0 16 7 16 15 0 8 -2 15 -4 15
-2 0 -9 -7 -16 -15z"/>
<path d="M3710 4194 c0 -8 5 -12 10 -9 6 4 8 11 5 16 -9 14 -15 11 -15 -7z"/>
<path d="M18730 4035 c-352 -61 -634 -145 -923 -276 -125 -56 -362 -182 -402
-213 l-20 -16 20 6 c11 4 27 13 36 21 14 12 18 12 22 1 4 -8 6 -7 6 5 1 11 9
17 24 16 16 -1 18 -2 5 -6 -10 -2 -18 -8 -18 -13 0 -5 -8 -17 -19 -27 -10 -10
-22 -33 -26 -50 -4 -19 -13 -33 -21 -33 -8 0 -14 -8 -14 -18 0 -10 -3 -22 -7
-26 -4 -4 -6 -23 -4 -42 2 -24 -2 -34 -12 -34 -9 0 -17 -15 -21 -40 -4 -28
-10 -38 -20 -34 -19 7 -33 -65 -14 -78 8 -5 3 -6 -14 -2 -24 5 -27 3 -23 -15
2 -12 -1 -21 -7 -21 -6 0 -8 13 -6 30 3 17 1 33 -3 35 -12 8 -21 -47 -10 -58
14 -14 14 -47 1 -47 -5 0 -10 -10 -10 -22 -1 -23 -1 -23 -15 2 -13 23 -14 24
-21 6 -5 -12 -3 -21 4 -24 7 -2 12 -13 12 -23 0 -11 -4 -17 -10 -14 -6 4 -10
-5 -10 -20 0 -16 -4 -24 -11 -20 -6 4 -8 14 -4 24 5 13 4 14 -7 3 -11 -11 -9
-16 8 -30 22 -19 22 -44 -1 -36 -7 3 -16 1 -19 -5 -4 -6 -13 -8 -22 -4 -20 8
-14 -17 10 -39 10 -10 15 -18 9 -18 -5 0 -19 -23 -31 -50 -24 -54 -28 -74 -11
-50 9 13 10 13 7 0 -3 -8 -14 -19 -26 -25 -14 -6 -23 -22 -27 -47 -4 -24 -12
-38 -21 -38 -8 0 -14 -6 -13 -12 4 -23 -20 -70 -32 -62 -8 5 -10 -1 -7 -20 3
-14 1 -26 -3 -26 -5 0 -9 -7 -9 -15 0 -8 -7 -15 -15 -15 -18 0 -19 -12 -3 -28
9 -9 8 -12 -6 -12 -9 0 -15 4 -12 8 2 4 0 14 -5 22 -10 14 -9 -3 7 -88 4 -18
0 -22 -21 -22 -23 0 -25 -4 -25 -40 0 -22 -4 -40 -10 -40 -5 0 -10 -9 -10 -20
0 -11 -4 -20 -10 -20 -5 0 -10 -7 -10 -15 0 -8 -4 -15 -10 -15 -5 0 -10 -12
-10 -27 l0 -27 30 34 c17 18 30 29 30 24 0 -15 -55 -65 -63 -57 -4 3 -7 2 -7
-4 0 -10 -230 -220 -480 -437 -312 -272 -613 -501 -878 -667 -54 -34 -98 -65
-100 -70 -2 -5 -10 -9 -18 -9 -8 0 -101 -45 -207 -99 -298 -154 -532 -251
-837 -346 -243 -76 -509 -132 -870 -185 -80 -11 -155 -23 -167 -25 -13 -3 -35
-7 -49 -10 -16 -4 -23 -2 -19 4 3 6 -31 -6 -77 -25 -196 -85 -465 -189 -657
-255 l-206 -69 565 4 c311 3 606 5 656 5 89 0 90 1 105 28 18 35 39 52 56 46
7 -3 19 -1 26 4 6 5 19 9 27 8 8 0 20 4 27 10 7 5 19 15 27 22 9 8 16 9 18 2
2 -7 13 -6 33 2 23 9 26 13 13 16 -17 4 -21 13 -15 30 1 5 6 7 10 5 4 -1 10 6
14 15 3 10 17 28 30 40 13 12 25 31 26 42 1 12 7 21 14 21 7 0 17 9 23 20 13
24 30 26 30 5 0 -8 -7 -15 -15 -15 -19 0 -31 -48 -15 -63 9 -9 11 -6 8 13 -2
21 1 25 22 25 18 1 24 6 22 18 -1 9 6 25 18 37 11 11 20 16 20 10 0 -5 7 -7
16 -3 9 3 20 0 25 -8 13 -21 11 -26 -11 -32 -24 -6 -27 -32 -4 -41 8 -3 13 -2
10 3 -3 5 5 20 19 32 25 25 33 49 15 49 -19 0 -10 15 16 27 34 16 42 -5 19
-55 -23 -53 -32 -74 -39 -95 -6 -17 -4 -17 22 1 15 10 43 26 63 35 44 20 89
72 84 98 -2 10 0 18 4 16 5 -1 18 9 29 23 17 20 21 22 22 8 0 -9 -8 -21 -17
-27 -10 -5 -14 -13 -9 -18 5 -4 11 -2 13 5 7 19 53 15 54 -5 0 -11 3 -13 6 -5
2 6 11 12 18 12 8 0 17 9 20 20 4 11 11 18 16 15 5 -4 9 -1 9 4 0 6 -7 11 -15
11 -8 0 -15 7 -15 15 0 8 9 15 20 15 11 0 20 -5 20 -10 0 -6 7 -7 18 -1 9 4
31 13 49 19 l32 10 -24 -49 c-29 -57 -29 -55 -11 -62 9 -4 12 0 9 12 -2 10 4
26 13 36 10 10 19 24 20 32 3 19 14 30 14 14 0 -7 4 -10 10 -6 5 3 7 12 4 20
-5 11 1 14 20 13 33 -3 33 -18 1 -51 -16 -15 -22 -28 -15 -32 5 -3 10 -1 10 4
0 6 11 11 23 11 22 0 23 3 20 45 -4 40 -2 45 16 45 14 0 21 -6 21 -19 0 -16
10 -21 53 -28 50 -9 74 -7 63 5 -3 3 -22 5 -41 4 -38 -2 -50 22 -16 33 10 3
21 14 24 24 3 14 12 18 37 15 25 -3 33 0 37 16 3 13 14 20 28 20 12 0 35 2 51
4 16 2 24 1 17 -1 -15 -5 -27 -64 -18 -92 5 -16 2 -21 -10 -21 -11 0 -15 -5
-12 -15 4 -8 2 -17 -3 -20 -6 -4 -10 -14 -9 -23 0 -11 3 -12 6 -4 7 18 16 15
32 -11 13 -19 12 -21 -1 -10 -18 15 -28 7 -28 -21 0 -14 3 -17 8 -9 4 7 18 11
30 8 12 -2 22 0 22 6 0 5 9 9 21 9 13 0 18 4 13 12 -4 6 -3 8 4 4 6 -3 22 -2
35 3 18 7 27 7 30 -2 3 -9 8 -9 18 0 7 7 28 13 46 13 18 0 33 5 33 10 0 6 -9
10 -19 10 -22 0 -36 29 -21 44 8 8 13 7 20 -3 6 -11 9 -5 12 20 2 19 8 33 13
32 6 -1 16 4 24 10 12 10 13 9 8 -6 -6 -17 -4 -16 22 2 16 12 34 21 39 21 5 0
13 7 16 16 3 9 12 14 20 11 9 -4 16 4 20 24 3 17 12 29 21 29 18 0 21 -36 3
-42 -6 -2 -9 -9 -5 -15 8 -12 57 -5 57 8 0 5 5 9 10 9 6 0 10 -9 10 -20 0 -11
5 -20 10 -20 6 0 10 6 10 14 0 10 16 17 48 21 44 5 74 13 114 30 11 4 18 1 21
-12 4 -14 5 -13 6 5 1 22 5 23 59 20 54 -3 57 -4 60 -31 4 -36 -5 -64 -18 -51
-5 5 -37 7 -72 4 -59 -5 -63 -6 -60 -29 2 -13 -1 -21 -6 -17 -12 7 -27 -32
-27 -70 1 -22 -3 -30 -12 -27 -8 3 -13 -3 -13 -18 0 -19 2 -21 10 -9 5 8 10
10 10 3 0 -13 18 -12 40 2 8 5 28 10 45 12 16 1 47 5 68 9 24 4 37 2 37 -5 0
-6 -4 -11 -10 -11 -5 0 -10 -9 -10 -20 0 -11 -4 -20 -10 -20 -5 0 -10 -8 -10
-18 0 -10 -5 -23 -10 -28 -7 -7 -7 -19 -1 -35 10 -24 10 -24 10 -1 1 19 6 22
41 22 30 0 40 4 40 16 0 11 5 14 16 10 9 -3 18 -6 20 -6 2 0 4 -7 4 -15 0 -8
4 -15 9 -15 5 0 8 7 7 16 0 9 9 20 22 25 20 8 22 6 16 -19 -13 -51 -24 -73
-34 -67 -5 3 -10 0 -10 -7 0 -7 -3 -24 -7 -38 -6 -25 -6 -25 15 -6 12 11 22
25 22 33 0 8 5 11 11 8 6 -4 13 2 16 14 3 11 9 18 14 15 5 -3 9 2 9 10 0 9 4
16 8 16 4 0 8 -9 8 -19 0 -11 -3 -18 -7 -15 -4 2 -10 -3 -13 -12 -11 -29 -7
-36 20 -30 25 7 26 5 20 -19 -5 -20 -3 -26 6 -23 7 3 14 15 16 27 2 14 9 21
17 17 8 -3 17 -1 20 4 3 5 -3 10 -12 13 -17 4 -17 4 1 12 23 10 35 -7 28 -42
-3 -18 -1 -24 7 -19 6 4 11 3 11 -3 0 -6 -11 -13 -25 -17 -28 -7 -31 -14 -12
-33 10 -10 8 -11 -7 -5 -16 6 -18 4 -12 -11 4 -11 1 -22 -6 -27 -8 -6 -4 -7
12 -2 29 8 62 13 108 16 17 0 32 4 32 7 0 3 11 11 25 18 28 12 30 8 19 -46 -4
-17 -13 -31 -20 -31 -8 0 -14 -4 -14 -9 0 -5 18 -9 39 -9 29 -1 41 4 44 16 4
16 5 16 6 0 1 -23 10 -23 1454 -26 l1227 -3 0 838 c1 461 3 960 7 1108 9 433
-7 2115 -21 2114 -6 -1 -72 -11 -146 -24z m-1140 -415 c0 -5 -8 -10 -17 -10
-15 0 -16 2 -3 10 19 12 20 12 20 0z m-40 -52 c0 -6 -6 -5 -15 2 -8 7 -15 14
-15 16 0 2 7 1 15 -2 8 -4 15 -11 15 -16z m-32 -109 c-3 -8 -7 -3 -11 10 -4
17 -3 21 5 13 5 -5 8 -16 6 -23z m-81 -44 c-4 -8 -11 -15 -17 -15 -7 0 -7 6 0
21 13 23 26 19 17 -6z m1 -120 c-3 -3 -9 2 -12 12 -6 14 -5 15 5 6 7 -7 10
-15 7 -18z m-68 -129 c0 -3 -4 -8 -10 -11 -5 -3 -10 -1 -10 4 0 6 5 11 10 11
6 0 10 -2 10 -4z m-53 -48 c-3 -8 -6 -5 -6 6 -1 11 2 17 5 13 3 -3 4 -12 1
-19z m-50 -200 c-3 -8 -6 -5 -6 6 -1 11 2 17 5 13 3 -3 4 -12 1 -19z m-197
-417 c0 -5 -7 -12 -16 -15 -14 -5 -15 -4 -4 9 14 17 20 19 20 6z m-94 -185
c-3 -27 -23 -56 -39 -56 -5 0 -1 8 9 18 11 9 19 27 18 40 -1 12 2 22 7 22 4 0
6 -11 5 -24z m34 4 c0 -5 -2 -10 -4 -10 -3 0 -8 5 -11 10 -3 6 -1 10 4 10 6 0
11 -4 11 -10z m-1489 -1263 c-5 -5 -17 -7 -27 -5 -17 3 -17 4 1 21 14 15 20
16 26 5 5 -7 4 -17 0 -21z m-53 -24 c-10 -2 -26 -2 -35 0 -10 3 -2 5 17 5 19
0 27 -2 18 -5z m353 -493 c5 0 9 -9 9 -20 0 -13 -7 -20 -20 -20 -14 0 -18 5
-13 16 3 9 0 20 -8 26 -11 8 -10 9 4 4 10 -3 23 -6 28 -6z m-1301 -40 c0 -5
-7 -7 -15 -4 -8 4 -15 8 -15 10 0 2 7 4 15 4 8 0 15 -4 15 -10z m560 -15 c0
-8 -2 -15 -4 -15 -2 0 -6 7 -10 15 -3 8 -1 15 4 15 6 0 10 -7 10 -15z m950
-41 c0 -9 -9 -18 -20 -21 -16 -4 -20 -14 -20 -48 l0 -42 -37 6 c-32 5 -38 11
-41 34 -2 15 -8 27 -13 27 -5 0 0 9 11 20 12 12 18 25 15 30 -4 6 16 10 49 10
45 0 56 -3 56 -16z m-1110 -4 c0 -5 -4 -10 -10 -10 -5 0 -10 5 -10 10 0 6 5
10 10 10 6 0 10 -4 10 -10z m747 -6 c-3 -3 -12 -4 -19 -1 -8 3 -5 6 6 6 11 1
17 -2 13 -5z m-90 -26 c-3 -8 -6 -5 -6 6 -1 11 2 17 5 13 3 -3 4 -12 1 -19z
m-1177 -2 c0 -7 -9 -16 -20 -19 -15 -4 -20 0 -20 14 0 12 7 19 20 19 11 0 20
-6 20 -14z m-407 -46 c3 -11 1 -18 -4 -14 -5 3 -9 12 -9 20 0 20 7 17 13 -6z
m1747 -30 c0 -5 -5 -10 -11 -10 -5 0 -7 5 -4 10 3 6 8 10 11 10 2 0 4 -4 4
-10z m195 -19 c-3 -6 -11 -11 -16 -11 -5 0 -4 6 3 14 14 16 24 13 13 -3z
m-2235 -147 c0 -17 -4 -21 -20 -17 -15 4 -20 0 -20 -16 0 -17 -6 -21 -35 -21
-28 0 -35 -4 -35 -20 0 -17 -7 -20 -40 -20 -39 0 -40 1 -40 34 0 40 20 51 83
47 31 -2 37 1 37 19 0 17 6 20 35 18 29 -2 35 -6 35 -24z m44 0 c3 -8 2 -12
-4 -9 -6 3 -10 10 -10 16 0 14 7 11 14 -7z m2477 -61 c13 -17 13 -17 -6 -3
-11 8 -22 16 -24 17 -2 2 0 3 6 3 6 0 17 -8 24 -17z"/>
<path d="M17343 3509 c-35 -22 -46 -37 -15 -20 22 13 58 40 52 41 -3 0 -20
-10 -37 -21z"/>
<path d="M17422 3510 c0 -14 2 -19 5 -12 2 6 2 18 0 25 -3 6 -5 1 -5 -13z"/>
<path d="M17257 3455 c-20 -14 -37 -28 -37 -31 0 -2 18 8 40 22 35 23 47 34
37 34 -1 0 -19 -11 -40 -25z"/>
<path d="M17381 3424 c0 -11 3 -14 6 -6 3 7 2 16 -1 19 -3 4 -6 -2 -5 -13z"/>
<path d="M17340 3343 c0 -21 3 -24 9 -14 5 8 7 20 4 28 -8 21 -13 15 -13 -14z"/>
<path d="M17303 3269 c-2 -23 3 -25 10 -4 4 8 3 16 -1 19 -4 3 -9 -4 -9 -15z"/>
<path d="M17106 2845 c-3 -8 -1 -15 4 -15 6 0 10 7 10 15 0 8 -2 15 -4 15 -2
0 -6 -7 -10 -15z"/>
<path d="M17072 2770 c0 -14 2 -19 5 -12 2 6 2 18 0 25 -3 6 -5 1 -5 -13z"/>
<path d="M10413 2772 c-8 -5 -16 -60 -22 -161 -6 -84 -12 -155 -15 -158 -2 -3
-13 0 -24 6 -84 45 -204 -45 -233 -173 -18 -83 18 -176 69 -176 48 0 119 77
163 175 11 25 21 45 23 45 2 0 1 -31 -2 -69 -6 -83 3 -137 24 -145 8 -3 34 2
57 12 l42 17 -35 5 -35 5 2 195 c0 111 8 242 16 305 9 60 13 113 11 117 -6 10
-25 10 -41 0z m-54 -329 c21 -5 22 -10 17 -47 -10 -60 -71 -180 -107 -210 -51
-43 -97 -26 -101 37 -9 163 69 253 191 220z"/>
<path d="M17030 2703 c-1 -7 -3 -16 -4 -20 -1 -5 -5 -14 -10 -21 -5 -8 -4 -18
3 -25 16 -16 23 -3 18 39 -2 22 -5 33 -7 27z"/>
<path d="M9310 2681 c0 -6 5 -13 10 -16 17 -10 11 -109 -10 -171 -27 -78 -141
-324 -150 -324 -4 0 -12 33 -19 73 -16 99 -59 288 -82 364 -23 74 -40 83 -116
60 -48 -15 -48 -15 -13 -16 19 -1 41 -5 48 -9 23 -15 49 -103 92 -307 50 -243
45 -225 69 -218 39 10 241 439 241 512 0 20 -8 35 -22 45 -25 18 -48 21 -48 7z"/>
<path d="M7755 2665 c-49 -12 -49 -13 -14 -14 61 -2 63 -10 51 -200 -7 -97
-20 -200 -32 -246 -11 -43 -20 -80 -20 -82 0 -12 41 0 49 15 11 20 31 273 31
388 0 43 2 75 5 72 3 -2 42 -113 88 -246 l83 -241 74 172 c40 95 88 204 106
242 l33 70 -6 -200 c-8 -270 1 -297 93 -274 58 15 66 29 15 29 -32 0 -41 4
-48 23 -9 24 -7 241 3 405 6 97 5 102 -14 102 -11 0 -24 -6 -30 -13 -9 -10
-87 -182 -184 -407 l-20 -45 -77 220 c-42 121 -80 226 -84 233 -10 15 -36 14
-102 -3z"/>
<path d="M8455 2675 c-5 -2 -31 -6 -57 -10 -57 -7 -63 -20 -11 -20 l38 0 0
-263 0 -262 28 0 27 0 0 83 c0 45 3 167 7 271 l6 188 65 -4 c55 -4 68 -8 88
-32 20 -22 24 -38 24 -87 0 -95 -22 -125 -114 -154 l-41 -13 37 -1 c98 -3 178
77 178 179 0 95 -51 130 -182 129 -45 0 -87 -2 -93 -4z"/>
<path d="M16980 2581 c0 -12 5 -21 10 -21 6 0 10 6 10 14 0 8 -4 18 -10 21 -5
3 -10 -3 -10 -14z"/>
<path d="M2096 2541 c-4 -7 -5 -15 -2 -18 9 -9 19 4 14 18 -4 11 -6 11 -12 0z"/>
<path d="M2053 2476 c4 -10 7 -22 7 -27 0 -5 4 -9 9 -9 12 0 2 38 -12 47 -7 4
-8 0 -4 -11z"/>
<path d="M9484 2456 c-86 -38 -138 -171 -100 -259 36 -85 126 -110 199 -54 20
15 37 33 37 38 0 6 -12 1 -26 -10 -37 -29 -104 -28 -132 2 -24 26 -42 69 -42
101 0 21 6 24 53 30 132 18 199 92 131 145 -30 24 -75 26 -120 7z m68 -18 c52
-41 17 -101 -68 -118 -31 -7 -58 -9 -61 -6 -11 11 18 88 42 112 26 26 62 31
87 12z"/>
<path d="M9698 2457 c-47 -13 -49 -22 -5 -22 l32 0 -3 -157 c-3 -153 -2 -158
17 -158 14 0 22 9 26 28 20 92 29 122 49 167 13 28 35 62 49 78 27 28 70 36
84 15 4 -7 6 -72 4 -144 -3 -149 2 -160 60 -144 19 5 43 16 53 23 16 12 14 13
-19 9 -25 -3 -40 0 -46 9 -5 8 -6 71 -3 140 7 120 6 127 -15 148 -55 55 -136
-7 -186 -144 -25 -67 -37 -80 -31 -30 25 194 21 206 -66 182z"/>
<path d="M10625 2456 c-69 -31 -99 -106 -41 -106 19 0 22 4 18 37 -3 27 0 40
14 50 52 38 124 -6 124 -76 0 -45 -18 -61 -67 -61 -39 -1 -107 -33 -127 -61
-25 -36 -21 -84 10 -108 15 -12 33 -21 41 -21 31 0 76 33 104 78 26 42 29 43
29 20 0 -74 44 -109 105 -83 43 17 44 23 5 17 -55 -8 -61 6 -59 152 1 129 1
131 -26 153 -30 26 -83 30 -130 9z m105 -183 c0 -9 -11 -35 -25 -58 -27 -48
-77 -75 -104 -58 -20 13 -26 55 -11 83 23 42 140 70 140 33z"/>
<path d="M10965 2455 c-95 -49 -83 -126 28 -181 70 -35 87 -52 87 -84 0 -37
-24 -55 -73 -55 -33 0 -44 6 -68 34 -18 22 -33 32 -43 28 -24 -9 -19 -33 10
-56 52 -41 131 -39 184 6 24 19 30 33 30 62 0 45 -12 57 -105 108 -61 34 -70
42 -73 70 -4 37 26 63 74 63 36 0 70 -31 60 -55 -4 -13 -1 -16 17 -13 15 2 23
11 25 30 6 50 -88 76 -153 43z"/>
<path d="M16910 2424 c0 -8 5 -12 10 -9 6 3 10 10 10 16 0 5 -4 9 -10 9 -5 0
-10 -7 -10 -16z"/>
<path d="M2018 2385 c-3 -14 -1 -25 3 -25 5 0 9 11 9 25 0 14 -2 25 -4 25 -2
0 -6 -11 -8 -25z"/>
<path d="M1971 2384 c0 -11 3 -14 6 -6 3 7 2 16 -1 19 -3 4 -6 -2 -5 -13z"/>
<path d="M16867 2339 c4 -13 9 -17 15 -11 11 11 3 32 -12 32 -4 0 -6 -9 -3
-21z"/>
<path d="M1981 2304 c0 -11 3 -14 6 -6 3 7 2 16 -1 19 -3 4 -6 -2 -5 -13z"/>
<path d="M16841 2264 c0 -11 3 -14 6 -6 3 7 2 16 -1 19 -3 4 -6 -2 -5 -13z"/>
<path d="M1940 2232 c0 -12 4 -22 9 -22 10 0 9 26 -2 36 -4 4 -7 -2 -7 -14z"/>
<path d="M16801 2184 c0 -11 3 -14 6 -6 3 7 2 16 -1 19 -3 4 -6 -2 -5 -13z"/>
<path d="M1900 2151 c0 -12 5 -21 10 -21 6 0 10 6 10 14 0 8 -4 18 -10 21 -5
3 -10 -3 -10 -14z"/>
<path d="M16775 2149 c-9 -14 -2 -20 14 -10 8 6 9 11 3 15 -6 3 -14 1 -17 -5z"/>
<path d="M1820 1956 c0 -9 5 -16 10 -16 6 0 10 4 10 9 0 6 -4 13 -10 16 -5 3
-10 -1 -10 -9z"/>
<path d="M1780 1880 c0 -11 5 -20 10 -20 6 0 10 9 10 20 0 11 -4 20 -10 20 -5
0 -10 -9 -10 -20z"/>
<path d="M1751 1794 c0 -11 3 -14 6 -6 3 7 2 16 -1 19 -3 4 -6 -2 -5 -13z"/>
<path d="M1642 1591 c-8 -5 -12 -23 -10 -47 l3 -39 11 48 c6 26 11 47 10 47 0
0 -7 -4 -14 -9z"/>
<path d="M1557 1393 c-4 -3 -7 -16 -6 -27 0 -19 1 -19 10 3 10 24 8 36 -4 24z"/>
<path d="M1510 1295 c0 -8 4 -15 8 -15 5 0 9 7 9 15 0 8 -4 15 -9 15 -4 0 -8
-7 -8 -15z"/>
<path d="M1699 1283 c-13 -16 -12 -17 4 -4 9 7 17 15 17 17 0 8 -8 3 -21 -13z"/>
<path d="M1473 1215 c0 -8 4 -15 9 -15 4 0 8 7 8 15 0 8 -4 15 -8 15 -5 0 -9
-7 -9 -15z"/>
<path d="M1589 1209 l-24 -20 28 17 c15 9 27 18 27 20 0 8 -8 4 -31 -17z"/>
<path d="M1534 1174 c-18 -14 -18 -15 4 -4 12 6 22 13 22 15 0 8 -5 6 -26 -11z"/>
<path d="M1484 1144 c-18 -14 -18 -15 4 -4 12 6 22 13 22 15 0 8 -5 6 -26 -11z"/>
<path d="M15147 487 c3 -15 9 -27 14 -27 13 0 11 13 -5 35 -13 18 -14 18 -9
-8z"/>
<path d="M15350 480 c0 -11 -9 -28 -20 -37 -11 -10 -20 -25 -20 -33 0 -9 -4
-20 -9 -26 -5 -5 -12 -24 -16 -41 -8 -37 2 -42 40 -17 13 9 28 13 33 10 4 -3
6 8 4 25 -4 26 -1 29 22 29 24 0 26 3 24 33 -2 17 2 34 7 36 6 2 15 10 20 17
6 7 21 15 35 17 14 2 -8 5 -47 6 -67 1 -73 -1 -73 -19z"/>
<path d="M14810 404 c0 -8 5 -12 10 -9 6 3 10 10 10 16 0 5 -4 9 -10 9 -5 0
-10 -7 -10 -16z"/>
<path d="M14840 365 c-11 -13 -10 -14 4 -9 9 3 16 10 16 15 0 13 -6 11 -20 -6z"/>
<path d="M14305 340 c-8 -13 4 -32 16 -25 12 8 12 35 0 35 -6 0 -13 -4 -16
-10z"/>
<path d="M14578 293 c12 -2 30 -2 40 0 9 3 -1 5 -23 4 -22 0 -30 -2 -17 -4z"/>
<path d="M14845 291 c-3 -5 -1 -12 5 -16 5 -3 10 1 10 9 0 18 -6 21 -15 7z"/>
<path d="M15460 245 c0 -8 2 -15 4 -15 2 0 6 7 10 15 3 8 1 15 -4 15 -6 0 -10
-7 -10 -15z"/>
<path d="M14260 231 c0 -6 4 -13 10 -16 6 -3 7 1 4 9 -7 18 -14 21 -14 7z"/>
<path d="M13907 223 c-4 -3 -7 -11 -7 -17 0 -6 5 -5 12 2 6 6 9 14 7 17 -3 3
-9 2 -12 -2z"/>
<path d="M15712 210 c0 -14 2 -19 5 -12 2 6 2 18 0 25 -3 6 -5 1 -5 -13z"/>
<path d="M13995 200 c-3 -5 -1 -10 4 -10 6 0 11 5 11 10 0 6 -2 10 -4 10 -3 0
-8 -4 -11 -10z"/>
<path d="M15738 183 c6 -2 18 -2 25 0 6 3 1 5 -13 5 -14 0 -19 -2 -12 -5z"/>
<path d="M15894 135 c4 -24 16 -30 16 -7 0 12 -4 22 -9 22 -5 0 -8 -7 -7 -15z"/>
<path d="M15830 51 c0 -4 11 -6 25 -3 14 2 25 6 25 8 0 2 -11 4 -25 4 -14 0
-25 -4 -25 -9z"/>
</g>
</svg>
